<svg width="435" height="417" viewBox="0 0 435 417" fill="none" xmlns="http://www.w3.org/2000/svg">
<path d="M373.044 156.057C350.404 66.9677 272.174 2.65791 180.349 0.0785058C131.804 -1.28516 80.7216 14.8262 43.5296 71.2059C-22.9552 171.991 47.6152 241.636 96.8151 274.73C120.585 290.751 142.002 310.014 160.448 331.962C193.68 371.426 257.613 420.465 333.754 343.628C388.941 287.937 388.125 215.399 373.044 156.057Z" fill="#DFFFE6"/>
<path d="M434.496 354.454C434.496 376.322 339.134 417 219.012 417C98.8902 417 0 378.844 0 356.976C0 335.107 98.8902 337.808 219.012 337.808C339.134 337.808 434.496 332.585 434.496 354.454Z" fill="#3F3D56"/>
<path opacity="0.1" d="M434.496 354.454C434.496 376.322 339.134 417 219.012 417C98.8902 417 0 378.844 0 356.976C0 335.107 98.8902 337.808 219.012 337.808C339.134 337.808 434.496 332.585 434.496 354.454Z" fill="black"/>
<path d="M217.5 396.319C337.622 396.319 435 378.592 435 356.723C435 334.855 337.622 317.128 217.5 317.128C97.3781 317.128 0 334.855 0 356.723C0 378.592 97.3781 396.319 217.5 396.319Z" fill="#3F3D56"/>
<path d="M299.842 222.059V327.956L317.543 356.824L318.89 359.019H388.734L390.145 222.059H299.842Z" fill="#2F2E41"/>
<path opacity="0.1" d="M299.842 222.059V327.956L317.543 356.824L318.629 222.059H299.842Z" fill="black"/>
<path d="M131.23 219.235V325.132L113.529 354L112.182 356.195H42.3376L40.9268 219.235H131.23Z" fill="#2F2E41"/>
<path opacity="0.1" d="M131.23 219.235V325.132L113.529 354L112.442 219.235H131.23Z" fill="black"/>
<path d="M411.309 217.117V223.471H31.7555V214.293L67.0298 195.938H380.268L411.309 217.117Z" fill="#2F2E41"/>
<path opacity="0.1" d="M411.309 217.117V223.471H31.7555V214.293L411.309 217.117Z" fill="black"/>
<path opacity="0.1" d="M86.0781 248.886H69.1463L62.0916 243.944H93.8385L86.0781 248.886Z" fill="black"/>
<path opacity="0.1" d="M86.0781 269.36H69.1463L62.0916 264.417H93.8385L86.0781 269.36Z" fill="black"/>
<path opacity="0.1" d="M86.0781 298.305H69.1463L62.0916 293.363H93.8385L86.0781 298.305Z" fill="black"/>
<path opacity="0.1" d="M86.0781 327.25H69.1463L62.0916 322.308H93.8385L86.0781 327.25Z" fill="black"/>
<path opacity="0.1" d="M344.993 251.71H361.925L368.98 246.768H337.233L344.993 251.71Z" fill="black"/>
<path opacity="0.1" d="M344.993 272.183H361.925L368.98 267.242H337.233L344.993 272.183Z" fill="black"/>
<path opacity="0.1" d="M344.993 301.129H361.925L368.98 296.187H337.233L344.993 301.129Z" fill="black"/>
<path opacity="0.1" d="M344.993 330.074H361.925L368.98 325.132H337.233L344.993 330.074Z" fill="black"/>
<path d="M268.417 178.271L266.064 193.306C266.064 193.306 254.479 199.465 262.625 199.646C270.771 199.827 309.147 199.646 309.147 199.646C309.147 199.646 316.569 199.646 304.802 193.125L302.449 177.365L268.417 178.271Z" fill="#3F3D56"/>
<path opacity="0.1" d="M260.986 199.483C262.568 198.203 264.269 197.076 266.064 196.119L268.417 181.084L302.449 181.116L304.802 195.938C306.736 196.937 308.559 198.137 310.24 199.519C311.752 199.174 313.403 197.891 304.802 193.125L302.449 177.365L268.417 178.271L266.064 193.306C266.064 193.306 256.329 198.482 260.986 199.483Z" fill="black"/>
<path d="M356.523 73.4778H213.981C211.004 73.4778 208.59 75.893 208.59 78.8723V174.959C208.59 177.939 211.004 180.354 213.981 180.354H356.523C359.501 180.354 361.914 177.939 361.914 174.959V78.8723C361.914 75.893 359.501 73.4778 356.523 73.4778Z" fill="#3F3D56"/>
<path d="M356.755 79.1839H213.75V159.25H356.755V79.1839Z" fill="#F2F2F2"/>
<path d="M285.252 77.5536C285.752 77.5536 286.157 77.1481 286.157 76.6479C286.157 76.1476 285.752 75.7421 285.252 75.7421C284.753 75.7421 284.347 76.1476 284.347 76.6479C284.347 77.1481 284.753 77.5536 285.252 77.5536Z" fill="#F2F2F2"/>
<path d="M361.914 165.59V174.959C361.914 175.668 361.775 176.369 361.504 177.024C361.233 177.678 360.836 178.273 360.336 178.774C359.835 179.275 359.241 179.672 358.587 179.943C357.932 180.214 357.231 180.354 356.523 180.354H213.981C213.273 180.354 212.572 180.214 211.918 179.943C211.264 179.672 210.67 179.275 210.169 178.774C209.669 178.273 209.272 177.678 209.001 177.024C208.73 176.369 208.59 175.668 208.59 174.959V165.59H361.914Z" fill="#3F3D56"/>
<path d="M285.252 176.459C287.152 176.459 288.692 174.918 288.692 173.017C288.692 171.117 287.152 169.576 285.252 169.576C283.353 169.576 281.813 171.117 281.813 173.017C281.813 174.918 283.353 176.459 285.252 176.459Z" fill="#F2F2F2"/>
<path d="M279.893 209.428V211.239H182.504V209.79L182.638 209.428L185.038 202.907H277.901L279.893 209.428Z" fill="#3F3D56"/>
<path d="M317.371 207.654C317.194 208.413 316.524 209.214 315.011 209.971C309.58 212.688 298.538 209.247 298.538 209.247C298.538 209.247 290.03 207.797 290.03 203.993C290.269 203.83 290.518 203.681 290.776 203.55C293.059 202.341 300.629 199.358 314.052 203.676C315.041 203.986 315.924 204.566 316.603 205.349C316.904 205.645 317.131 206.009 317.264 206.409C317.398 206.81 317.434 207.237 317.371 207.654Z" fill="#3F3D56"/>
<path opacity="0.1" d="M317.371 207.654C310.724 210.203 304.799 210.393 298.719 206.167C295.652 204.037 292.866 203.51 290.776 203.55C293.059 202.341 300.629 199.358 314.052 203.676C315.041 203.986 315.924 204.566 316.603 205.349C316.904 205.645 317.131 206.009 317.264 206.409C317.398 206.81 317.434 207.237 317.371 207.654Z" fill="black"/>
<path d="M309.037 206.167C310.337 206.167 311.39 205.843 311.39 205.443C311.39 205.042 310.337 204.718 309.037 204.718C307.737 204.718 306.684 205.042 306.684 205.443C306.684 205.843 307.737 206.167 309.037 206.167Z" fill="#F2F2F2"/>
<path opacity="0.1" d="M279.893 209.428V211.239H182.504V209.79L182.638 209.428H279.893Z" fill="black"/>
<path d="M335.547 116.998C334.778 116.229 324.917 103.798 323.253 101.748C321.46 99.6973 320.691 100.082 319.539 100.21C318.386 100.338 305.964 102.517 304.555 102.645C303.147 102.901 302.25 103.414 303.147 104.695C303.915 105.849 312.111 117.382 313.904 120.073L281.248 127.891L255.38 84.4472C254.355 82.9094 254.099 82.3968 251.794 82.5249C249.489 82.653 231.432 84.1909 230.151 84.1909C228.871 84.319 227.462 84.8317 228.743 87.9073C230.023 90.9829 250.513 135.067 251.025 136.349C251.538 137.63 253.074 139.681 256.532 138.912C260.118 138.015 272.412 134.811 279.199 133.017C282.785 139.424 289.956 152.496 291.365 154.418C293.158 156.981 294.439 156.468 297.128 155.699C299.305 155.059 330.68 143.781 332.089 143.141C333.498 142.5 334.394 142.115 333.37 140.706C332.601 139.681 324.405 128.531 320.051 122.764C322.996 121.996 333.626 119.176 334.778 118.792C336.059 118.407 336.315 117.767 335.547 116.998V116.998ZM276.254 129.172C275.87 129.3 257.557 133.657 256.66 133.914C255.636 134.17 255.636 134.042 255.636 133.657C255.38 133.273 233.865 88.6762 233.481 88.1636C233.225 87.651 233.225 87.1384 233.481 87.1384C233.737 87.1384 250.769 85.6006 251.281 85.6006C251.922 85.6006 251.794 85.7287 252.05 86.1132C252.05 86.1132 275.998 127.506 276.382 128.147C276.894 128.788 276.638 129.044 276.254 129.172V129.172ZM327.735 138.784C327.991 139.296 328.375 139.552 327.351 139.809C326.454 140.193 296.488 150.317 295.847 150.573C295.207 150.83 294.823 150.958 294.054 149.805C293.286 148.651 283.553 131.863 283.553 131.863L315.441 123.533C316.209 123.277 316.465 123.149 316.978 123.918C317.49 124.815 327.479 138.399 327.735 138.783V138.784ZM329.784 116.229C329.015 116.357 317.362 119.304 317.362 119.304L307.757 106.233C307.501 105.849 307.245 105.464 307.885 105.336C308.525 105.208 319.411 103.286 319.923 103.157C320.435 103.029 320.819 102.901 321.46 103.798C322.1 104.567 330.296 115.075 330.68 115.46C331.064 115.844 330.552 116.101 329.784 116.229V116.229Z" fill="#FB503B"/>
<path d="M198.92 97.9261C209.567 97.9261 218.198 89.2888 218.198 78.6342C218.198 67.9796 209.567 59.3423 198.92 59.3423C188.273 59.3423 179.642 67.9796 179.642 78.6342C179.642 89.2888 188.273 97.9261 198.92 97.9261Z" fill="#FFB9B9"/>
<path d="M184.715 88.2801V118.741H216.169C216.169 118.741 212.111 93.3569 214.14 85.7417L184.715 88.2801Z" fill="#FFB9B9"/>
<path d="M247.116 129.402C247.116 129.402 217.184 114.68 217.184 113.664C217.184 112.649 214.14 106.049 212.111 106.049C210.081 106.049 192.832 100.464 183.193 108.587L182.178 115.187L145.143 139.556L155.29 176.617C155.29 176.617 161.885 183.724 159.856 188.801C157.826 193.878 161.378 219.769 161.378 219.769L241.028 217.231V182.709C241.028 182.709 243.565 174.586 245.087 172.047C246.609 169.509 245.087 161.894 245.087 161.894L257.263 146.663C257.263 146.663 255.741 132.448 247.116 129.402Z" fill="#D0CDE1"/>
<path opacity="0.1" d="M146.412 151.994L148.695 139.556C148.695 139.556 135.504 196.924 137.026 203.524C138.548 210.124 149.709 220.277 151.231 220.785C152.753 221.292 166.958 177.124 166.958 177.124L146.412 151.994Z" fill="black"/>
<path d="M153.768 138.033L145.143 139.556C145.143 139.556 131.953 196.924 133.475 203.524C134.997 210.124 146.158 220.277 147.68 220.785C149.202 221.292 163.407 177.124 163.407 177.124L153.768 138.033Z" fill="#D0CDE1"/>
<path opacity="0.1" d="M249.906 155.04L254.219 146.663C254.219 146.663 260.307 204.031 256.248 209.616C252.189 215.2 236.135 217.29 236.135 217.29L235.955 175.601L249.906 155.04Z" fill="black"/>
<path d="M250.667 140.064L257.263 146.663C257.263 146.663 263.351 204.031 259.292 209.616C255.233 215.2 239.179 217.29 239.179 217.29L238.999 175.601L250.667 140.064Z" fill="#D0CDE1"/>
<path d="M152.246 227.385C152.246 227.385 137.533 221.8 134.997 232.461C132.46 243.123 141.085 290.845 141.085 290.845C141.085 290.845 146.665 326.89 150.217 327.905C153.768 328.921 169.495 329.428 172.032 324.859C174.568 320.29 164.422 273.584 164.422 273.584L223.272 272.568C223.272 272.568 219.72 313.183 217.691 316.736C215.662 320.29 215.662 332.475 217.691 332.475C219.72 332.475 242.043 331.459 243.565 328.413C245.087 325.367 253.711 256.83 253.711 256.83C253.711 256.83 260.814 232.969 252.697 234.492C244.579 236.015 152.246 227.385 152.246 227.385Z" fill="#3F3D56"/>
<path d="M238.999 326.382C238.999 326.382 244.072 322.829 246.609 326.382C249.145 329.936 250.16 333.998 238.999 340.09C227.838 346.182 219.213 344.659 219.213 343.644V328.921L238.999 326.382Z" fill="#2F2E41"/>
<path d="M151.231 324.859C151.231 324.859 146.158 321.306 143.621 324.859C141.085 328.413 140.07 332.475 151.231 338.567C162.392 344.659 171.017 343.136 171.017 342.121V327.398L151.231 324.859Z" fill="#2F2E41"/>
<path d="M199.045 54.3091C197.125 54.2423 195.208 54.5157 193.383 55.1167C191.967 55.686 190.615 56.4018 189.349 57.2524L180.838 62.5488C180.115 62.8617 179.501 63.3817 179.074 64.0433C178.646 64.7049 178.424 65.4784 178.435 66.2662L177.372 74.2368C177.103 76.2482 176.856 78.3993 177.756 80.2179C178.507 81.7358 179.939 82.7745 181.117 83.9911C183.001 85.9461 184.27 88.4125 184.764 91.0835C185.373 94.4113 184.983 98.4188 187.615 100.543C189.04 101.692 190.982 101.91 192.81 102.017C197.807 102.309 202.821 102.116 207.781 101.44C208.569 101.381 209.338 101.166 210.042 100.806C210.937 100.276 211.5 99.3417 212.027 98.4447C213.927 95.2066 215.886 91.7619 215.866 88.0065C215.856 86.1487 215.381 84.1534 216.272 82.5238C216.743 81.8311 217.254 81.1667 217.803 80.5339C218.907 78.9819 219.122 76.9879 219.302 75.0915C219.876 69.0342 219.275 64.4247 214.814 60.1578C210.65 56.1748 204.724 54.3457 199.045 54.3091Z" fill="#2F2E41"/>
<path d="M151.689 287.362L134.757 373.492H143.223L159.449 288.774L151.689 287.362Z" fill="#2F2E41"/>
<path d="M206.012 294.422L216.594 393.259H223.649L217.299 291.598L206.012 294.422Z" fill="#2F2E41"/>
<path d="M234.937 291.598L249.752 357.254H256.807L242.697 290.186L234.937 291.598Z" fill="#2F2E41"/>
<path d="M178.498 291.598L176.381 343.841H182.025L186.258 291.598H178.498Z" fill="#2F2E41"/>
<path d="M139.696 278.184C139.696 278.184 128.408 202.644 160.155 200.526C191.902 198.408 237.053 200.526 237.053 200.526C237.053 200.526 263.156 198.408 255.396 278.184C255.396 278.184 262.451 301.482 198.957 299.364C135.463 297.246 139.696 278.184 139.696 278.184Z" fill="#00C997"/>
<path d="M428.951 309.032C428.951 322.205 421.126 326.804 411.472 326.804C401.819 326.804 393.994 322.205 393.994 309.032C393.994 295.859 411.472 279.102 411.472 279.102C411.472 279.102 428.951 295.859 428.951 309.032Z" fill="#00C997"/>
<path d="M411.015 313.765L418.465 300.126L411.043 312.035L411.123 307.079L416.258 297.211L411.145 305.767L411.289 296.851L416.787 288.996L411.312 295.45L411.403 279.102L410.859 299.816L405.291 291.288L410.791 301.564L410.271 311.521L410.255 311.257L403.811 302.246L410.235 312.19L410.17 313.436L410.159 313.454L410.164 313.557L408.843 326.844H410.608L410.82 325.77L417.229 315.85L410.836 324.789L411.015 313.765Z" fill="#3F3D56"/>
<path d="M422.635 355.379H401.797L396.412 324.92H426.85L422.635 355.379Z" fill="#2F2E41"/>
<path d="M116.437 149.456H73.0881V200.314H116.437V149.456Z" fill="#3F3D56"/>
<path d="M109.71 157.348H79.8146V192.422H109.71V157.348Z" fill="#F2F2F2"/>
<path d="M97.7588 164.797L94.7228 170.058L91.6868 164.797H81.5776L94.7228 187.581L107.868 164.797H97.7588Z" fill="#4DBA87"/>
<path d="M97.7588 164.797L94.7228 170.058L91.6868 164.797H86.8357L94.7227 178.467L102.61 164.797H97.7588Z" fill="#435466"/>
</svg>
